# xmcd CD database file
#
# Track frame offsets:
#	150
#	17430
#	32599
#	58281
#	75373
#	90229
#	110640
#	136890
#	161756
#	178743
#	199863
#
# Disc length: 2855 seconds
#
# Revision: 0
# Processed by: cddbd v1.5.1PL0 Copyright (c) Steve Scherf et al.
# Submitted via: CDex 1.50beta9
#
DISCID=850b250b
DTITLE=Various Artist - Jazzadelic 04.5
DYEAR=2004
DGENRE=Jazz
TTITLE0=A Girl Called Eddy-Somebody Hurt You
TTITLE1=Paul Weller-One Way Road
TTITLE2=Van Hunt-Seconds of Pleasure
TTITLE3=Katie Melua-Blame It On The Moon
TTITLE4=Willy Deville-Come A Little Bit Closer
TTITLE5=Izaline Calister-Wow'i Karino
TTITLE6=Mariza Vs Plaster-O Deserto
TTITLE7=Bebo&Cigala-Lagrimas Negras
TTITLE8=Mory Kante-Diananko
TTITLE9=Matt Bianco-Ordinairy Day
TTITLE10=Madeleine Peyroux-Don't Wait To Long
EXTD=YEAR: 2004
EXTT0=
EXTT1=
EXTT2=
EXTT3=
EXTT4=
EXTT5=
EXTT6=
EXTT7=
EXTT8=
EXTT9=
EXTT10=
PLAYORDER=
